# xmcd
#
# Track frame offsets: 
#        150
#        42427
#        91480
#        114555
#        151207
#        168100
#
# Disc length: 2548 seconds
#
# Revision: 3
# Processed by: cddbd v1.4PL0 Copyright (c) Steve Scherf et al.
# Submitted via: ExactAudioCopy v0.90b4
#
DISCID=4009f206
DTITLE=Brian Auger's Oblivion Express - Straight Ahead
DYEAR=1973
DGENRE=Blues
TTITLE0=Beginning Again
TTITLE1=Bumpin' On Sunset
TTITLE2=Straight Ahead
TTITLE3=Change
TTITLE4=You'll Stay In My Heart
TTITLE5=Straight Ahead - Alternate Mix
EXTD=YEAR: 1973 ID3G:   0
EXTT0=
EXTT1=
EXTT2=
EXTT3=
EXTT4=
EXTT5=
PLAYORDER=
